<svg width="29" height="30" viewBox="0 0 29 30" fill="none" xmlns="http://www.w3.org/2000/svg">
<path d="M5.95579 23.8388C7.64568 25.587 9.79872 26.7775 12.1427 27.2598C14.4866 27.7421 16.9162 27.4946 19.1241 26.5485C21.332 25.6024 23.2192 24.0002 24.5469 21.9446C25.8747 19.889 26.5833 17.4723 26.5833 15C26.5833 12.5277 25.8747 10.111 24.5469 8.05537C23.2192 5.99976 21.332 4.3976 19.1241 3.45151C16.9162 2.50541 14.4866 2.25787 12.1427 2.74018C9.79872 3.2225 7.64568 4.41301 5.9558 6.16116" stroke="#FF2627" stroke-width="2"/>
<path d="M18.125 15L18.9161 14.3883L19.3891 15L18.9161 15.6117L18.125 15ZM3.625 16C3.07271 16 2.625 15.5523 2.625 15C2.625 14.4477 3.07271 14 3.625 14V16ZM13.2917 8.75L14.0827 8.13825L18.9161 14.3883L18.125 15L17.3339 15.6117L12.5006 9.36175L13.2917 8.75ZM18.125 15L18.9161 15.6117L14.0827 21.8617L13.2917 21.25L12.5006 20.6383L17.3339 14.3883L18.125 15ZM18.125 15V16H3.625V15V14H18.125V15Z" fill="#FF2627"/>
</svg>
