<svg width="33" height="28" viewBox="0 0 33 28" fill="none" xmlns="http://www.w3.org/2000/svg">
<path d="M21.8145 0C24.1827 0.000128759 26.2396 1.32627 27.2822 3.27441H30.5254C31.8927 3.27462 32.9998 4.38033 33 5.74414V22.2109C32.9998 23.5748 31.8927 24.6814 30.5254 24.6816H27.3604L29.2773 26.5947C29.5995 26.9163 29.5995 27.4373 29.2773 27.7588C28.9552 28.0802 28.4335 28.0803 28.1113 27.7588L25.0273 24.6816H2.47461C1.10726 24.6814 0.000185505 23.5748 0 22.2109V5.74414C0.000226393 4.38033 1.10729 3.27462 2.47461 3.27441H16.3457C17.4071 1.28714 19.4919 0 21.8145 0ZM2.47461 4.9209C2.01863 4.92106 1.65039 5.29027 1.65039 5.74512V20.085L11.5039 10.2529C11.8904 9.86724 12.5168 9.8672 12.9033 10.2529L20.4521 17.7871L23.0537 15.1924C23.439 14.8081 24.059 14.808 24.4541 15.1924L29.3037 20.0342C29.6256 20.3558 29.6259 20.8768 29.3037 21.1982C28.9815 21.5197 28.4589 21.5197 28.1367 21.1982L23.7539 16.8223L21.6191 18.9512L25.7109 23.0352H30.5254C30.981 23.0349 31.3492 22.6663 31.3496 22.2119V5.74512C31.3496 5.29033 30.9813 4.92116 30.5254 4.9209H27.8809C27.9654 5.32793 28.0098 5.7496 28.0098 6.18164C28.0098 9.59563 25.2363 12.3631 21.8145 12.3633C18.9114 12.3633 16.4157 10.355 15.7764 7.56738C15.6747 7.12413 15.9523 6.68252 16.3965 6.58105C16.8405 6.47976 17.2831 6.75703 17.3848 7.2002C17.8534 9.24291 19.6849 10.7168 21.8145 10.7168C24.3251 10.7166 26.3594 8.68611 26.3594 6.18164C26.3594 5.74404 26.2966 5.32125 26.1807 4.9209H2.47461ZM1.6709 22.3926C1.7535 22.7601 2.08116 23.035 2.47461 23.0352H23.3779L12.2031 11.8838L1.6709 22.3926ZM21.8145 1.64648C20.4347 1.64648 19.1693 2.2654 18.3242 3.27441H25.3027C24.469 2.27972 23.216 1.64659 21.8145 1.64648Z" fill="#F5F5F5"/>
</svg>
