<svg width="29" height="29" viewBox="0 0 29 29" fill="none" xmlns="http://www.w3.org/2000/svg">
<path d="M14.5 0.214294C15.4862 0.214294 16.2857 1.01379 16.2857 2.00001V12.7143H27C27.9862 12.7143 28.7857 13.5138 28.7857 14.5C28.7857 15.4862 27.9862 16.2857 27 16.2857H16.2857V27C16.2857 27.9862 15.4862 28.7857 14.5 28.7857C13.5138 28.7857 12.7143 27.9862 12.7143 27V16.2857H2C1.01378 16.2857 0.214287 15.4862 0.214287 14.5C0.214287 13.5138 1.01378 12.7143 2 12.7143H12.7143V2.00001C12.7143 1.01379 13.5138 0.214294 14.5 0.214294Z" fill="#F5F5F5"/>
</svg>
