<svg width="38" height="39" viewBox="0 0 38 39" fill="none" xmlns="http://www.w3.org/2000/svg">
<path d="M17.1438 1.75661C18.1872 0.747586 19.8154 0.747683 20.8596 1.75759L36.1467 16.5779C37.1159 17.5146 37.255 18.9499 36.591 20.0584L36.5901 20.0593C36.1042 20.8671 35.2617 21.3699 34.2912 21.3699C33.7935 21.3698 33.3901 20.9556 33.3899 20.4451C33.3899 19.9344 33.7933 19.5204 34.2912 19.5203C34.6235 19.5203 34.8913 19.3598 35.0549 19.0877L35.1272 18.9431C35.2677 18.5932 35.1975 18.201 34.9094 17.9226L19.6213 3.10231C19.2726 2.76503 18.7291 2.76478 18.3811 3.10134L3.09005 17.9226C2.498 18.4966 2.89552 19.5203 3.71017 19.5203H6.34396V18.532C6.34405 16.999 7.55522 15.7577 9.04904 15.7576H28.9524C30.4462 15.7576 31.6573 16.9989 31.6574 18.532V35.2254C31.6573 36.7584 30.4462 37.9998 28.9524 37.9998H9.04904C7.55524 37.9997 6.34407 36.7584 6.34396 35.2254V21.3699H3.71017C1.2643 21.3699 0.0742366 18.3022 1.85177 16.5789L17.1438 1.75661ZM9.04904 17.6072C8.55092 17.6073 8.14775 18.0208 8.14767 18.532V19.5203H18.8869C19.3849 19.5203 19.7892 19.9344 19.7893 20.4451C19.7893 20.9559 19.3849 21.3699 18.8869 21.3699H8.14767V35.2254C8.14778 35.7365 8.55094 36.1501 9.04904 36.1502H28.9524C29.4505 36.1502 29.8546 35.7366 29.8547 35.2254V18.532C29.8546 18.0208 29.4505 17.6072 28.9524 17.6072H9.04904Z" fill="#F5F5F5"/>
<path d="M17.1438 1.75661L16.7962 1.39717L16.7958 1.39758L17.1438 1.75661ZM20.8596 1.75759L21.2076 1.39859L21.2072 1.39819L20.8596 1.75759ZM36.1467 16.5779L35.7987 16.9369L35.7992 16.9374L36.1467 16.5779ZM36.591 20.0584L36.9446 20.4119L36.9882 20.3683L37.02 20.3153L36.591 20.0584ZM36.5901 20.0593L36.2365 19.7058L36.1932 19.7491L36.1616 19.8016L36.5901 20.0593ZM34.2912 21.3699L34.2911 21.8699H34.2912V21.3699ZM33.3899 20.4451H32.8899V20.4453L33.3899 20.4451ZM34.2912 19.5203V19.0203H34.2911L34.2912 19.5203ZM35.0549 19.0877L35.4834 19.3453L35.4934 19.3287L35.5021 19.3113L35.0549 19.0877ZM35.1272 18.9431L35.5744 19.1667L35.5835 19.1484L35.5912 19.1294L35.1272 18.9431ZM34.9094 17.9226L34.5614 18.2816L34.5619 18.2822L34.9094 17.9226ZM19.6213 3.10231L19.9693 2.74331L19.9689 2.74292L19.6213 3.10231ZM18.3811 3.10134L18.0335 2.74191L18.0331 2.74231L18.3811 3.10134ZM3.09005 17.9226L2.74206 17.5636L2.74202 17.5636L3.09005 17.9226ZM6.34396 19.5203V20.0203H6.84396V19.5203H6.34396ZM6.34396 18.532L5.84396 18.532V18.532H6.34396ZM9.04904 15.7576V15.2576H9.04901L9.04904 15.7576ZM31.6574 18.532H32.1574V18.532L31.6574 18.532ZM31.6574 35.2254L32.1574 35.2254V35.2254H31.6574ZM9.04904 37.9998L9.04901 38.4998H9.04904V37.9998ZM6.34396 35.2254H5.84396V35.2254L6.34396 35.2254ZM6.34396 21.3699H6.84396V20.8699H6.34396V21.3699ZM1.85177 16.5789L1.50377 16.2198L1.50373 16.2199L1.85177 16.5789ZM9.04904 17.6072V17.1072H9.04895L9.04904 17.6072ZM8.14767 18.532L7.64767 18.5319V18.532H8.14767ZM8.14767 19.5203H7.64767V20.0203H8.14767V19.5203ZM19.7893 20.4451H20.2893V20.445L19.7893 20.4451ZM8.14767 21.3699V20.8699H7.64767V21.3699H8.14767ZM8.14767 35.2254H7.64767V35.2255L8.14767 35.2254ZM9.04904 36.1502L9.04895 36.6502H9.04904V36.1502ZM29.8547 35.2254L30.3547 35.2255V35.2254H29.8547ZM29.8547 18.532H30.3547V18.5319L29.8547 18.532ZM17.1438 1.75661L17.4913 2.11605C18.3409 1.29455 19.6616 1.29444 20.512 2.11698L20.8596 1.75759L21.2072 1.39819C19.9693 0.200921 18.0336 0.200626 16.7962 1.39717L17.1438 1.75661ZM20.8596 1.75759L20.5116 2.11658L35.7987 16.9369L36.1467 16.5779L36.4947 16.2189L21.2076 1.39859L20.8596 1.75759ZM36.1467 16.5779L35.7992 16.9374C36.5932 17.7048 36.7124 18.8826 36.1621 19.8014L36.591 20.0584L37.02 20.3153C37.7975 19.0172 37.6386 17.3244 36.4942 16.2184L36.1467 16.5779ZM36.591 20.0584L36.2375 19.7048L36.2365 19.7058L36.5901 20.0593L36.9436 20.4129L36.9446 20.4119L36.591 20.0584ZM36.5901 20.0593L36.1616 19.8016C35.7626 20.465 35.0795 20.8699 34.2912 20.8699V21.3699V21.8699C35.4438 21.8699 36.4458 21.2693 37.0185 20.3171L36.5901 20.0593ZM34.2912 21.3699L34.2914 20.8699C34.0818 20.8698 33.8899 20.6917 33.8899 20.4449L33.3899 20.4451L32.8899 20.4453C32.8902 21.2195 33.5051 21.8697 34.2911 21.8699L34.2912 21.3699ZM33.3899 20.4451H33.8899C33.8899 20.1984 34.0815 20.0203 34.2914 20.0203L34.2912 19.5203L34.2911 19.0203C33.5052 19.0205 32.8899 19.6704 32.8899 20.4451H33.3899ZM34.2912 19.5203V20.0203C34.8045 20.0203 35.2322 19.7631 35.4834 19.3453L35.0549 19.0877L34.6264 18.83C34.5503 18.9565 34.4426 19.0203 34.2912 19.0203V19.5203ZM35.0549 19.0877L35.5021 19.3113L35.5744 19.1667L35.1272 18.9431L34.6799 18.7195L34.6077 18.8641L35.0549 19.0877ZM35.1272 18.9431L35.5912 19.1294C35.8047 18.5977 35.6964 17.9879 35.2569 17.5631L34.9094 17.9226L34.5619 18.2822C34.6985 18.4141 34.7307 18.5887 34.6632 18.7568L35.1272 18.9431ZM34.9094 17.9226L35.2574 17.5636L19.9693 2.74331L19.6213 3.10231L19.2733 3.46131L34.5614 18.2816L34.9094 17.9226ZM19.6213 3.10231L19.9689 2.74292C19.4268 2.21859 18.5758 2.21749 18.0335 2.74191L18.3811 3.10134L18.7286 3.46076C18.8824 3.31206 19.1184 3.31147 19.2737 3.46171L19.6213 3.10231ZM18.3811 3.10134L18.0331 2.74231L2.74206 17.5636L3.09005 17.9226L3.43805 18.2816L18.7291 3.46036L18.3811 3.10134ZM3.09005 17.9226L2.74202 17.5636C1.84617 18.4321 2.4204 20.0203 3.71017 20.0203V19.5203V19.0203C3.37064 19.0203 3.14982 18.5611 3.43809 18.2816L3.09005 17.9226ZM3.71017 19.5203V20.0203H6.34396V19.5203V19.0203H3.71017V19.5203ZM6.34396 19.5203H6.84396V18.532H6.34396H5.84396V19.5203H6.34396ZM6.34396 18.532L6.84396 18.532C6.84403 17.2632 7.84312 16.2577 9.04906 16.2576L9.04904 15.7576L9.04901 15.2576C7.26733 15.2577 5.84406 16.7347 5.84396 18.532L6.34396 18.532ZM9.04904 15.7576V16.2576H28.9524V15.7576V15.2576H9.04904V15.7576ZM28.9524 15.7576V16.2576C30.1583 16.2576 31.1574 17.2632 31.1574 18.532L31.6574 18.532L32.1574 18.532C32.1573 16.7347 30.7342 15.2576 28.9524 15.2576V15.7576ZM31.6574 18.532H31.1574V35.2254H31.6574H32.1574V18.532H31.6574ZM31.6574 35.2254L31.1574 35.2253C31.1573 36.4942 30.1583 37.4998 28.9524 37.4998V37.9998V38.4998C30.7341 38.4998 32.1573 37.0226 32.1574 35.2254L31.6574 35.2254ZM28.9524 37.9998V37.4998H9.04904V37.9998V38.4998H28.9524V37.9998ZM9.04904 37.9998L9.04906 37.4998C7.84314 37.4997 6.84405 36.4941 6.84396 35.2253L6.34396 35.2254L5.84396 35.2254C5.84409 37.0226 7.26733 38.4997 9.04901 38.4998L9.04904 37.9998ZM6.34396 35.2254H6.84396V21.3699H6.34396H5.84396V35.2254H6.34396ZM6.34396 21.3699V20.8699H3.71017V21.3699V21.8699H6.34396V21.3699ZM3.71017 21.3699V20.8699C1.7399 20.8699 0.725707 18.367 2.19981 16.9379L1.85177 16.5789L1.50373 16.2199C-0.577234 18.2374 0.788698 21.8699 3.71017 21.8699V21.3699ZM1.85177 16.5789L2.19977 16.9379L17.4918 2.11563L17.1438 1.75661L16.7958 1.39758L1.50377 16.2198L1.85177 16.5789ZM9.04904 17.6072L9.04895 17.1072C8.26278 17.1073 7.6478 17.7568 7.64767 18.5319L8.14767 18.532L8.64767 18.5321C8.64771 18.2848 8.83906 18.1072 9.04912 18.1072L9.04904 17.6072ZM8.14767 18.532H7.64767V19.5203H8.14767H8.64767V18.532H8.14767ZM8.14767 19.5203V20.0203H18.8869V19.5203V19.0203H8.14767V19.5203ZM18.8869 19.5203V20.0203C19.0972 20.0203 19.2892 20.1989 19.2893 20.4452L19.7893 20.4451L20.2893 20.445C20.2891 19.6699 19.6725 19.0203 18.8869 19.0203V19.5203ZM19.7893 20.4451H19.2893C19.2893 20.6912 19.0974 20.8699 18.8869 20.8699V21.3699V21.8699C19.6724 21.8699 20.2893 21.2205 20.2893 20.4451H19.7893ZM18.8869 21.3699V20.8699H8.14767V21.3699V21.8699H18.8869V21.3699ZM8.14767 21.3699H7.64767V35.2254H8.14767H8.64767V21.3699H8.14767ZM8.14767 35.2254L7.64767 35.2255C7.64784 36.0005 8.26277 36.65 9.04895 36.6502L9.04904 36.1502L9.04912 35.6502C8.8391 35.6501 8.64772 35.4725 8.64767 35.2252L8.14767 35.2254ZM9.04904 36.1502V36.6502H28.9524V36.1502V35.6502H9.04904V36.1502ZM28.9524 36.1502V36.6502C29.7381 36.6502 30.3545 36.0012 30.3547 35.2255L29.8547 35.2254L29.3547 35.2252C29.3546 35.4719 29.163 35.6502 28.9524 35.6502V36.1502ZM29.8547 35.2254H30.3547V18.532H29.8547H29.3547V35.2254H29.8547ZM29.8547 18.532L30.3547 18.5319C30.3546 17.7561 29.7381 17.1072 28.9524 17.1072V17.6072V18.1072C29.163 18.1072 29.3547 18.2854 29.3547 18.5321L29.8547 18.532ZM28.9524 17.6072V17.1072H9.04904V17.6072V18.1072H28.9524V17.6072Z" fill="#F5F5F5"/>
</svg>
