<svg width="30" height="30" viewBox="0 0 30 30" fill="none" xmlns="http://www.w3.org/2000/svg">
<path d="M27.1965 0C28.7446 0.000343183 30.0002 1.1204 30.0002 2.50098V23.9766C30.0002 24.3648 29.9 24.7469 29.7053 25.0967L27.2639 29.4443C27.0553 29.8214 26.6458 30.0052 26.2405 30H0.935791C0.419479 30 0.00025259 29.6264 0.000244141 29.166C0.000244141 28.7056 0.419474 28.332 0.935791 28.332H24.6311L22.8157 25.0947C22.6225 24.7477 22.5217 24.3655 22.5217 23.9785V2.50098C22.5218 1.12019 23.778 0 25.3264 0H27.1965ZM25.7971 28.332H26.2542C26.2881 28.332 26.3217 28.3337 26.3547 28.3369C26.3573 28.3372 26.3599 28.3376 26.3625 28.3379C26.5322 28.3554 26.6872 28.4146 26.8167 28.502L26.26 27.5088L25.7971 28.332ZM24.4133 24.1543C24.4295 24.2223 24.4541 24.2886 24.4885 24.3506L26.26 27.5088L28.0325 24.3535C28.0677 24.2902 28.0922 24.223 28.1086 24.1543H24.4133ZM25.3264 1.66699C24.8107 1.66699 24.3919 2.04106 24.3918 2.50098V22.4863H28.1311V2.50098C28.1311 2.04114 27.7112 1.66712 27.1956 1.66699H25.3264Z" fill="#F5F5F5"/>
</svg>
